<svg width="247.87999267578124px" height="141.239990234375px" xmlns="http://www.w3.org/2000/svg" viewBox="126.06000366210938 4.3800048828125 247.87999267578124 141.239990234375" style="background: none;" preserveAspectRatio="xMidYMid"><defs><filter id="editing-hole" x="-100%" y="-100%" width="300%" height="300%"><feFlood flood-color="#000" result="black"></feFlood><feMorphology operator="dilate" radius="2" in="SourceGraphic" result="erode"></feMorphology><feGaussianBlur in="erode" stdDeviation="4" result="blur"></feGaussianBlur><feOffset in="blur" dx="2" dy="2" result="offset"></feOffset><feComposite operator="atop" in="offset" in2="black" result="merge"></feComposite><feComposite operator="in" in="merge" in2="SourceGraphic" result="inner-shadow"></feComposite></filter></defs><g filter="url(#editing-hole)"><g transform="translate(165.81500005722046, 97.84499931335449)"><path d="M42.22-44.94L42.22 0.31L35.34 0.31L11.44-37.25L11.44 0L5.56 0L5.56-44.94L12.44-44.94L36.34-7.38L36.34-44.94L42.22-44.94ZM75.78-6.03L77.34-1.81L77.34-1.81Q73.88-0.44 70.83 0.16L70.83 0.16L70.83 0.16Q67.78 0.75 65.38 0.75L65.38 0.75L65.38 0.75Q61.69 0.75 58.94-0.42L58.94-0.42L58.94-0.42Q56.19-1.59 54.36-3.72L54.36-3.72L54.36-3.72Q52.53-5.84 51.61-8.80L51.61-8.80L51.61-8.80Q50.69-11.75 50.69-15.31L50.69-15.31L50.69-15.31Q50.69-17.50 51-19.69L51-19.69L51-19.69Q51.31-21.88 52-23.86L52-23.86L52-23.86Q52.69-25.84 53.80-27.56L53.80-27.56L53.80-27.56Q54.91-29.28 56.50-30.53L56.50-30.53L56.50-30.53Q58.09-31.78 60.22-32.50L60.22-32.50L60.22-32.50Q62.34-33.22 65.06-33.22L65.06-33.22L65.06-33.22Q72.03-33.22 75.56-28.86L75.56-28.86L75.56-28.86Q79.09-24.50 79.09-16.38L79.09-16.38L79.09-14.66L56.22-14.66L56.22-14.66Q56.22-12.03 56.78-10.02L56.78-10.02L56.78-10.02Q57.34-8 58.52-6.61L58.52-6.61L58.52-6.61Q59.69-5.22 61.48-4.50L61.48-4.50L61.48-4.50Q63.28-3.78 65.75-3.78L65.75-3.78L65.75-3.78Q67.13-3.78 68.48-3.98L68.48-3.98L68.48-3.98Q69.84-4.19 71.13-4.52L71.13-4.52L71.13-4.52Q72.41-4.84 73.58-5.25L73.58-5.25L73.58-5.25Q74.75-5.66 75.78-6.03L75.78-6.03ZM56.38-18.97L73.69-18.97L73.69-18.97Q73.44-24.03 71.27-26.36L71.27-26.36L71.27-26.36Q69.09-28.69 65.06-28.69L65.06-28.69L65.06-28.69Q61.03-28.69 58.92-26.36L58.92-26.36L58.92-26.36Q56.81-24.03 56.38-18.97L56.38-18.97ZM97.41 0L87.91 0L87.91-44.94L97.41-44.94L97.41-44.94Q101.25-44.94 104.55-44.55L104.55-44.55L104.55-44.55Q107.84-44.16 110.59-43.19L110.59-43.19L110.59-43.19Q113.34-42.22 115.42-40.61L115.42-40.61L115.42-40.61Q117.50-39 119-36.50L119-36.50L119-36.50Q120.47-34 121.22-30.56L121.22-30.56L121.22-30.56Q121.97-27.13 121.97-22.47L121.97-22.47L121.97-22.47Q121.97-17.81 121.22-14.38L121.22-14.38L121.22-14.38Q120.47-10.94 119-8.44L119-8.44L119-8.44Q117.50-5.94 115.42-4.33L115.42-4.33L115.42-4.33Q113.34-2.72 110.59-1.75L110.59-1.75L110.59-1.75Q107.84-0.78 104.55-0.39L104.55-0.39L104.55-0.39Q101.25 0 97.41 0L97.41 0ZM93.78-4.81L98.38-4.81L98.38-4.81Q103.16-4.81 106.48-5.77L106.48-5.77L106.48-5.77Q109.81-6.72 111.94-8.88L111.94-8.88L111.94-8.88Q114.03-11.03 114.98-14.36L114.98-14.36L114.98-14.36Q115.94-17.69 115.94-22.47L115.94-22.47L115.94-22.47Q115.94-27.25 114.98-30.58L114.98-30.58L114.98-30.58Q114.03-33.91 111.94-36.06L111.94-36.06L111.94-36.06Q109.81-38.22 106.48-39.17L106.48-39.17L106.48-39.17Q103.16-40.13 98.38-40.13L98.38-40.13L93.78-40.13L93.78-4.81ZM130.78-44.94L144.94-44.94L144.94-44.94Q148.13-44.94 150.92-44.45L150.92-44.45L150.92-44.45Q153.72-43.97 155.81-42.75L155.81-42.75L155.81-42.75Q157.91-41.53 159.13-39.44L159.13-39.44L159.13-39.44Q160.34-37.34 160.34-34.09L160.34-34.09L160.34-34.09Q160.34-32.16 159.91-30.66L159.91-30.66L159.91-30.66Q159.47-29.16 158.67-28L158.67-28L158.67-28Q157.88-26.84 156.72-26.02L156.72-26.02L156.72-26.02Q155.56-25.19 154.16-24.63L154.16-24.63L154.16-24.56L154.16-24.56Q155.88-24.13 157.45-23.22L157.45-23.22L157.45-23.22Q159.03-22.31 160.22-20.91L160.22-20.91L160.22-20.91Q161.41-19.50 162.11-17.58L162.11-17.58L162.11-17.58Q162.81-15.66 162.81-13.22L162.81-13.22L162.81-13.22Q162.81-9.69 161.56-7.19L161.56-7.19L161.56-7.19Q160.31-4.69 158.11-3.09L158.11-3.09L158.11-3.09Q155.91-1.50 152.92-0.75L152.92-0.75L152.92-0.75Q149.94 0 146.47 0L146.47 0L130.78 0L130.78-44.94ZM136.66-26.47L144.84-26.47L144.84-26.47Q147.09-26.47 148.88-26.84L148.88-26.84L148.88-26.84Q150.66-27.22 151.89-28.11L151.89-28.11L151.89-28.11Q153.13-29 153.80-30.48L153.80-30.48L153.80-30.48Q154.47-31.97 154.47-34.16L154.47-34.16L154.47-34.16Q154.47-36.03 153.69-37.25L153.69-37.25L153.69-37.25Q152.91-38.47 151.56-39.16L151.56-39.16L151.56-39.16Q150.22-39.84 148.47-40.11L148.47-40.11L148.47-40.11Q146.72-40.38 144.84-40.38L144.84-40.38L136.66-40.38L136.66-26.47ZM136.66-4.56L146.47-4.56L146.47-4.56Q148.66-4.56 150.58-5.13L150.58-5.13L150.58-5.13Q152.50-5.69 153.91-6.78L153.91-6.78L153.91-6.78Q155.31-7.88 156.13-9.50L156.13-9.50L156.13-9.50Q156.94-11.13 156.94-13.25L156.94-13.25L156.94-13.25Q156.94-15.38 156.13-16.98L156.13-16.98L156.13-16.98Q155.31-18.59 153.91-19.69L153.91-19.69L153.91-19.69Q152.50-20.78 150.58-21.34L150.58-21.34L150.58-21.34Q148.66-21.91 146.47-21.91L146.47-21.91L136.66-21.91L136.66-4.56Z" fill="#ccc"></path></g></g><style>text {
  font-size: 64px;
  font-family: Arial Black;
  dominant-baseline: central;
  text-anchor: middle;
}</style></svg>